# xmcd
#
# Track frame offsets:
# 150
# 11962
# 25415
# 36932
# 47652
# 60280
# 72927
# 86365
# 99512
# 110175
# 123500
# 136930
# 149557
# 163132
# 182782
# 197490
# 210275
# 219982
#
# Disc length: 3098 seconds
#
# Revision: 1
# Processed by: cddbd v1.5.1PL2 Copyright (c) Steve Scherf et al.
# Submitted via: Easy CD Ripper v2.37
#
DISCID=050c1812
DTITLE=Etta James - The Best of Etta James
DYEAR=1991
DGENRE=Blues
TTITLE0=I'd Rather Go Blind - Etta James
TTITLE1=At Last - Etta James
TTITLE2=Stop the Wedding - Etta James
TTITLE3=Tell Mama (Tell Daddy) - Etta James
TTITLE4=Dance with Me Henry - Etta James and Richard Berry
TTITLE5=Somethings' Got a Hold on Me - Etta James
TTITLE6=Trust in Me - Etta James
TTITLE7=All I Could Do Was Cry - Etta James
TTITLE8=Steal Away - Etta James
TTITLE9=Pushover - Etta James
TTITLE10=Fool That I Am - Etta James
TTITLE11=Security - Etta James
TTITLE12=My Dearest Darling - Etta James
TTITLE13=Baby, What You Want Me to Do - Etta James
TTITLE14=A Sunday Kind of Love - Etta James
TTITLE15=Spoonful - Etta James and Harvey Fuqua
TTITLE16=Waiting for Charlie to Come Home - Etta James
TTITLE17=Next Door to the Blues - Etta James
EXTD=
EXTT0=
EXTT1=
EXTT2=
EXTT3=
EXTT4=
EXTT5=
EXTT6=
EXTT7=
EXTT8=
EXTT9=
EXTT10=
EXTT11=
EXTT12=
EXTT13=
EXTT14=
EXTT15=
EXTT16=
EXTT17=
PLAYORDER=
